<svg width="78" height="110" viewBox="0 0 78 110" fill="none" xmlns="http://www.w3.org/2000/svg">
<path fill-rule="evenodd" clip-rule="evenodd" d="M70 11.6629C70 8.56835 68.7557 5.60208 66.5429 3.41334C64.3261 1.22849 61.3218 0 58.1875 0H18.8125C15.6822 0 12.6779 1.22849 10.4611 3.41334C8.24425 5.60208 7 8.56835 7 11.6629V19.3371C7 22.4278 8.24425 25.394 10.4611 27.5828C12.6779 29.7676 15.6822 31 18.8125 31H58.1875C61.3218 31 64.3261 29.7676 66.5429 27.5828C68.7557 25.394 70 22.4278 70 19.3371V11.6629Z" fill="#D1D1D1"/>
<path fill-rule="evenodd" clip-rule="evenodd" d="M65.676 39H12.3162C12.1212 39.0315 11.9184 39.0473 11.7156 39.0473H11.7078C8.6034 39.0473 5.6277 40.292 3.432 42.5057C1.2324 44.7233 0 47.7288 0 50.8642V98.1831C0 101.319 1.2324 104.324 3.432 106.542C5.6277 108.755 8.6034 110 11.7078 110H66.2883C69.3927 110 72.3723 108.755 74.568 106.542C76.7637 104.324 78 101.319 78 98.1831C78 86.0629 78 62.9805 78 50.8642C78 47.7288 76.7637 44.7233 74.568 42.5057C72.3723 40.292 69.3927 39.0473 66.2883 39.0473C66.0816 39.0473 65.8749 39.0315 65.676 39ZM35.1 62.7323H27.2532C25.1004 62.7323 23.3532 64.497 23.3532 66.6713C23.3532 68.8456 25.1004 70.6103 27.2532 70.6103H35.1V78.5315C35.1 80.7059 36.8472 82.4705 39 82.4705C41.1528 82.4705 42.9 80.7059 42.9 78.5315V70.6103H50.7429C52.8957 70.6103 54.6429 68.8456 54.6429 66.6713C54.6429 64.497 52.8957 62.7323 50.7429 62.7323H42.9V54.8071C42.9 52.6328 41.1528 50.8681 39 50.8681C36.8472 50.8681 35.1 52.6328 35.1 54.8071V62.7323Z" fill="#D1D1D1"/>
<rect x="14" y="45" width="48" height="40" fill="#D1D1D1"/>
</svg>
