<!DOCTYPE svg PUBLIC "-//W3C//DTD SVG 1.1//EN" "http://www.w3.org/Graphics/SVG/1.1/DTD/svg11.dtd">
<!-- Uploaded to: SVG Repo, www.svgrepo.com, Transformed by: SVG Repo Mixer Tools -->
<svg height="800px" width="800px" version="1.1" id="Layer_1" xmlns="http://www.w3.org/2000/svg" xmlns:xlink="http://www.w3.org/1999/xlink" viewBox="0 0 512 512" xml:space="preserve" fill="#000000">
<g id="SVGRepo_bgCarrier" stroke-width="0"/>
<g id="SVGRepo_tracerCarrier" stroke-linecap="round" stroke-linejoin="round"/>
<g id="SVGRepo_iconCarrier"> <g> <path style="fill:#324248;" d="M368.109,239.572c-53.747,0-97.473-43.725-97.473-97.472s43.725-97.472,97.473-97.472 c53.747,0,97.472,43.725,97.472,97.472C465.582,195.846,421.856,239.572,368.109,239.572z"/> <path style="fill:#324248;" d="M493.94,467.372H269.714c-9.974,0-18.06-8.086-18.06-18.06c0-50.791,2.665-69.583-11.737-97.774 c-2.637-5.162-2.637-11.276,0.002-16.437C308.432,201.083,512,249.918,512,400.513v48.799 C512,459.286,503.914,467.372,493.94,467.372z"/> </g> <g> <path style="fill:#2f3132;" d="M143.891,239.572c-53.747,0-97.472-43.725-97.472-97.472s43.725-97.472,97.472-97.472 s97.473,43.725,97.473,97.472C241.363,195.846,197.637,239.572,143.891,239.572z"/> <path style="fill:#2f3132;" d="M269.714,467.372H18.06c-9.974,0-18.06-8.086-18.06-18.06v-48.799 c0-150.665,203.578-199.277,272.077-65.418c18.942,37.077,15.697,64.989,15.697,114.218 C287.774,459.286,279.688,467.372,269.714,467.372z"/> </g> </g>
</svg>