<svg xmlns="http://www.w3.org/2000/svg" viewBox="0 0 883.33 268.2"><defs><style>.a{fill:#ea1e79;}.b{fill:#fff;}</style></defs><path d="M269.14,302.87c31.84,0,65.67-25.61,65.67-73.07v-.52c0-47.46-34.07-73.07-72.13-73.07-38.57,0-73.51,28.75-73.51,80.12,0,37.24,18.22,49.31,5.81,97.15-3.89,15,1,28.54,16,28.54,18.62,0,18.93-21.46,14.74-31.9-16.81-41.89.42-38.1.42-38.1C236.36,292.62,242.17,302.87,269.14,302.87Zm-43.35-72.5v-.49c0-22,16.28-38.55,37.88-38.55s37.07,16.22,37.07,38.55v.49c0,22.7-15.25,38.55-37.07,38.55C242.07,268.92,225.79,252.35,225.79,230.37Z" transform="translate(-58.33 -105.78)"/><path class="a" d="M734.63,157.79a18.45,18.45,0,0,0-3.37-.31,18,18,0,0,0-11.65,4.27,18.7,18.7,0,0,0-6.69,14.37v71.82c0,33.88,23,54.93,63.74,54.93,11.89,0,63.75-2,63.75-59.62V176.12A18.65,18.65,0,0,0,820,157.57c-9.44.89-16.83,9.3-16.83,19.16v61.5c0,18.62-10.49,30.19-27.38,30.19-16.67,0-25.84-10.54-25.84-29.68v-62A18.93,18.93,0,0,0,734.63,157.79Z" transform="translate(-58.33 -105.78)"/><path d="M370.16,157.49a18.3,18.3,0,0,0-18.37,18.63V283a18.5,18.5,0,0,0,37,0V176.12A18.43,18.43,0,0,0,370.16,157.49Z" transform="translate(-58.33 -105.78)"/><path d="M370.29,146.51a20.37,20.37,0,1,0-20.36-20.37A20.4,20.4,0,0,0,370.29,146.51Z" transform="translate(-58.33 -105.78)"/><path d="M477.15,159H466.66V129.54c0-10.34-8.46-19.29-18.8-19.06a18.52,18.52,0,0,0-18.21,18.37V159h-10.2c-9.28,0-16.49,8.93-16.37,18.2.11,9,7.87,16.37,16.9,16.37h9.63l0,89.24a18.51,18.51,0,0,0,18.51,18.51h0a18.51,18.51,0,0,0,18.51-18.51V193.59h10.49A16.71,16.71,0,0,0,493.74,177C493.74,168,486.3,159,477.15,159Z" transform="translate(-58.33 -105.78)"/><path class="a" d="M925.08,159H914.59V129.54c0-10.34-8.46-19.29-18.8-19.06a18.52,18.52,0,0,0-18.21,18.37V159h-10.2c-9.28,0-16.49,8.93-16.37,18.2.11,9,7.87,16.37,16.9,16.37h9.63l0,89.24a18.51,18.51,0,0,0,18.51,18.51h0a18.51,18.51,0,0,0,18.51-18.51V193.59h10.49A16.71,16.71,0,0,0,941.67,177C941.67,168,934.23,159,925.08,159Z" transform="translate(-58.33 -105.78)"/><path class="a" d="M701.34,240.2c-16-18.87-22.41-63-70.19-91-20.12-11.77-32.94.79-37.48,6.64a2.33,2.33,0,0,1-3.67,0c-5.47-6.84-23.37-22.7-56.1,7.68-34,31.6-42.23,65.43-49.31,77.85a5.88,5.88,0,0,0,1.84,7.74C511,266,528.16,310.65,582.15,310.69h0c7.91.64,15.15-2,21.21-.12,17.3,5.33,6.57,14.25,7.09,48.91.29,19.83,20,16.94,21.07,5.56,1.93-21.31-5.47-23.23-4.91-47.85.08-3.58,2.42-13.9,6.89-15.89,3.29-1.47,6-.48,7.59,1.4s1,6,.91,8.67c-.44,13.56,16.73,16.15,17,1.8.15-8.16-3.5-12-.92-20.72,1.72-5.86,6.9-10.86,7-10.94,9.2-9.06,17.12-19.62,35.2-32.67A5.93,5.93,0,0,0,701.34,240.2Zm-70.46-6c-1.39,8.4-3.88,9-6.25,11.44-8.8,9.21-53.85,15.48-78.32-1.12-10.6-7.19-23.93-6.13-29.34-5.08a2.54,2.54,0,0,1-2.85-3.47l1.29-3.08c10.74-16.21,25.41-35.07,43.58-35.15,20.26-.09,32.33-6.29,32.33-6.29a37.62,37.62,0,0,0,7.7,3.09h0a.5.5,0,0,0,.08.07c4.71,1.57,11.54,2.61,19.91,3.87C631.44,199,633.09,220.82,630.88,234.2Zm14.65,6.31c-3.1,1.13-4.75.92-6.52-1.85-2.24-3.5-3.08-13-1.92-18.47,3.1-14.51,9.82-8.76,10.13-8.65,10.24,8.31,25.43,23,25.87,23.24l.09.41a3.31,3.31,0,0,1-3.8,3.9C665.07,238.4,657.45,236.18,645.53,240.51Z" transform="translate(-58.33 -105.78)"/><path class="b" d="M653.36,173.55s-17.5-19.63-32.84-21.66c-11.23-1.5-20.69,3.51-17.59,7.44,4.11,5.2,13.6.42,25,5.07S661.38,184.44,653.36,173.55Z" transform="translate(-58.33 -105.78)"/><path class="b" d="M574.93,156.65a1.39,1.39,0,0,0,1.05-2.54,17.41,17.41,0,0,0-8.57-2.41c-10.09-.35-8.71,6.12-2.41,5.94C569.4,157.52,571.31,156,574.93,156.65Z" transform="translate(-58.33 -105.78)"/><path class="b" d="M530.92,268.23s21.17,17,36.55,19.65,25,9,18.82,12.88-36.73-2.52-56.25-22.19S523.29,259.32,530.92,268.23Z" transform="translate(-58.33 -105.78)"/><ellipse class="b" cx="541.5" cy="193.54" rx="5.92" ry="3.78"/><path d="M65.71,285.48a96.5,96.5,0,0,0,54,16.88c32.84,0,54.07-18.16,54.07-46.27v-.52c0-29-29.13-38.11-44.78-43h0l-2.64-.85c-13.46-4.31-26.17-8.39-26.17-15.72v-.52c0-6.43,6.19-10.43,16.16-10.43,8.51,0,19.48,3.21,30.88,9A15.29,15.29,0,0,0,154.8,196a15.79,15.79,0,0,0,16.1-15.83c0-6.25-3.35-11.61-9.19-14.7-14.06-7.44-29.91-11.54-44.62-11.54-30.61,0-52,18.49-52,45v.52c0,30.55,29.31,38.82,45.05,43.26l3.29,1C127,247.76,138.7,251.3,138.7,259v.52c0,7.45-6.64,11.73-18.23,11.73-12.23,0-25.31-4.41-37.82-12.75l-.25-.15a16.8,16.8,0,0,0-8.23-2.19A15.67,15.67,0,0,0,58.33,272,15.33,15.33,0,0,0,65.71,285.48Z" transform="translate(-58.33 -105.78)"/><ellipse class="a" cx="592.47" cy="235.52" rx="8.85" ry="9.98"/></svg>