<svg width="40" height="40" viewBox="0 0 40 40" fill="none" xmlns="http://www.w3.org/2000/svg">
<path d="M20 5C16.7006 5.01035 13.5137 6.20034 11.015 8.355C9.1 10.005 7.7125 12.155 7.355 14.3125C3.165 15.2375 0 18.8875 0 23.295C0 28.415 4.27 32.5 9.4525 32.5H31.7175C36.255 32.5 40 28.925 40 24.4325C40 20.3425 36.895 17.01 32.915 16.4475C32.3075 9.9975 26.725 5 20 5ZM25.885 17.865C26.0012 17.9812 26.0934 18.1192 26.1563 18.271C26.2192 18.4229 26.2516 18.5856 26.2516 18.75C26.2516 18.9144 26.2192 19.0771 26.1563 19.229C26.0934 19.3808 26.0012 19.5188 25.885 19.635C25.7688 19.7512 25.6308 19.8434 25.479 19.9063C25.3271 19.9692 25.1644 20.0016 25 20.0016C24.8356 20.0016 24.6729 19.9692 24.521 19.9063C24.3692 19.8434 24.2312 19.7512 24.115 19.635L21.25 16.7675V26.25C21.25 26.5815 21.1183 26.8995 20.8839 27.1339C20.6495 27.3683 20.3315 27.5 20 27.5C19.6685 27.5 19.3505 27.3683 19.1161 27.1339C18.8817 26.8995 18.75 26.5815 18.75 26.25V16.7675L15.885 19.635C15.6503 19.8697 15.3319 20.0016 15 20.0016C14.6681 20.0016 14.3497 19.8697 14.115 19.635C13.8803 19.4003 13.7484 19.0819 13.7484 18.75C13.7484 18.4181 13.8803 18.0997 14.115 17.865L19.115 12.865C19.2311 12.7486 19.3691 12.6562 19.5209 12.5932C19.6728 12.5302 19.8356 12.4978 20 12.4978C20.1644 12.4978 20.3272 12.5302 20.4791 12.5932C20.6309 12.6562 20.7689 12.7486 20.885 12.865L25.885 17.865Z" fill="#EA1E79"/>
</svg>
