<svg version="1.2" xmlns="http://www.w3.org/2000/svg" viewBox="0 0 823 823" width="823" height="823">
	<title>shutterstock_405047260-ai</title>
	<style>
		.s0 { fill: #ffffff } 
	</style>
	<g id="white">
		<g id="&lt;Group&gt;">
			<g id="&lt;Group&gt;">
				<path id="&lt;Path&gt;" class="s0" d="m717.6 386.9l-105.8 83.2v103.6l105.8 83.2c12.3 9.7 30.4 0.9 30.4-14.8v-240.4c0-15.7-18.1-24.5-30.4-14.8z"/>
			</g>
			<g id="&lt;Group&gt;">
				<path id="&lt;Compound Path&gt;" fill-rule="evenodd" class="s0" d="m140.6 336.3c-20.3-21-32.8-49.5-32.8-80.9 0-64.1 52.2-116.3 116.3-116.3 38.9 0 73.4 19.3 94.6 48.7 19.1-52.7 69.7-90.5 129-90.5 75.6 0 137.2 61.5 137.2 137.2 0 40.3-17.5 76.7-45.4 101.8h-183.6c-10.3-9.3-19.2-20.1-26.3-32.1-5.5 11.9-13 22.8-22.1 32.1zm246.4-101.8c0 33.4 27.2 60.7 60.7 60.7 33.4 0 60.7-27.3 60.7-60.7 0-33.5-27.3-60.7-60.7-60.7-33.5 0-60.7 27.2-60.7 60.7zm-203.6 20.9c0 22.4 18.2 40.7 40.7 40.7 22.4 0 40.7-18.3 40.7-40.7 0-22.4-18.3-40.7-40.7-40.7-22.5 0-40.7 18.3-40.7 40.7z"/>
			</g>
			<g id="&lt;Group&gt;">
				<path id="&lt;Path&gt;" class="s0" d="m545.5 356.3h-394.3c-23.8 0-44 18.4-45.1 42.1q-0.1 1.1-0.1 2.2v246.5c0 25.8 20.9 46.6 46.6 46.6h391.5c25.4 0 46-20.3 46.5-45.6v-248.5q0-1-0.1-2.1c-1.5-23.4-21.6-41.2-45-41.2z"/>
			</g>
		</g>
	</g>
</svg>