<svg height="512" viewBox="0 0 24 24" width="512" xmlns="http://www.w3.org/2000/svg"><g id="essentials/security/face-id" fill="none" fill-rule="evenodd"><path id="Fill-23" d="m3.49998982 9.0039c-.276 0-.5-.224-.5-.5v-2c0-1.93 1.57-3.5 3.5-3.5h2c.276 0 .5.224.5.5s-.224.5-.5.5h-2c-1.378 0-2.5 1.121-2.5 2.5v2c0 .276-.224.5-.5.5m15.99999998 0c-.276 0-.5-.224-.5-.5v-2c0-1.379-1.122-2.5-2.5-2.5h-2c-.276 0-.5-.224-.5-.5s.224-.5.5-.5h2c1.93 0 3.5 1.57 3.5 3.5v2c0 .276-.224.5-.5.5m-10.99999998 2c-.276 0-.5-.224-.5-.5v-2c0-.276.224-.5.5-.5s.5.224.5.5v2c0 .276-.224.5-.5.5m5.99999998 0c-.276 0-.5-.224-.5-.5v-2c0-.276.224-.5.5-.5s.5.224.5.5v2c0 .276-.224.5-.5.5m-4 2c-.276 0-.49999998-.224-.49999998-.5s.22399998-.5.49999998-.5.5-.225.5-.5v-3c0-.276.224-.5.5-.5s.5.224.5.5v3c0 .827-.673 1.5-1.5 1.5m1 3c-1.132 0-2.09199998-.386-2.85399998-1.146-.195-.196-.195-.512 0-.708.196-.195.512-.195.708 0 .574.575 1.27599998.854 2.14599998.854s1.572-.279 2.146-.854c.196-.195.512-.195.708 0 .195.196.195.512 0 .708-.762.76-1.722 1.146-2.854 1.146m-2.99999998 4h-2c-1.93 0-3.5-1.57-3.5-3.5v-2c0-.276.224-.5.5-.5s.5.224.5.5v2c0 1.379 1.122 2.5 2.5 2.5h2c.276 0 .5.224.5.5s-.224.5-.5.5m7.99999998 0h-2c-.276 0-.5-.224-.5-.5s.224-.5.5-.5h2c1.378 0 2.5-1.121 2.5-2.5v-2c0-.276.224-.5.5-.5s.5.224.5.5v2c0 1.93-1.57 3.5-3.5 3.5" fill="rgb(0,0,0)"/></g></svg>