<svg width="22" height="22" viewBox="0 0 22 22" fill="none" xmlns="http://www.w3.org/2000/svg">
<path d="M12.9072 1.58247L14.8437 5.48231C15.1078 6.01411 15.8119 6.54591 16.3988 6.63454L19.905 7.22542C22.1496 7.6095 22.6777 9.23443 21.064 10.8594L18.3353 13.6218C17.8805 14.0797 17.6164 14.9808 17.7631 15.6308L18.5407 19.0431C19.1568 21.7317 17.7338 22.7805 15.3718 21.3771L12.0856 19.4124C11.4841 19.0579 10.5159 19.0579 9.91438 19.4124L6.61351 21.3624C4.25155 22.7657 2.82851 21.7169 3.44467 19.0284L4.22221 15.616C4.36892 14.9808 4.10485 14.0797 3.65006 13.607L0.93601 10.8741C-0.677749 9.2492 -0.14961 7.6095 2.09498 7.2402L5.60124 6.64931C6.18806 6.54591 6.89225 6.02888 7.15632 5.49708L9.09283 1.59724C10.1344 -0.529945 11.8656 -0.529945 12.9072 1.58247Z" fill="#292D32"/>
</svg>
