<svg xmlns="http://www.w3.org/2000/svg" viewBox="0 0 218.9 229.65"><defs><style>.a{fill:#ccc;}</style></defs><path class="a" d="M701.34,240.2c-16-18.87-22.41-63-70.19-91-20.12-11.77-32.94.79-37.48,6.64a2.33,2.33,0,0,1-3.67,0c-5.47-6.84-23.37-22.7-56.1,7.68-34,31.6-42.23,65.43-49.31,77.85a5.88,5.88,0,0,0,1.84,7.74C511,266,528.16,310.65,582.15,310.69h0c7.91.64,15.15-2,21.21-.12,17.3,5.33,6.57,14.25,7.09,48.91.29,19.83,20,16.94,21.07,5.56,1.93-21.31-5.47-23.23-4.91-47.85.08-3.58,2.42-13.9,6.89-15.89,3.29-1.47,6-.48,7.59,1.4s1,6,.91,8.67c-.44,13.56,16.73,16.15,17,1.8.15-8.16-3.5-12-.92-20.72,1.72-5.86,6.9-10.86,7-10.94,9.2-9.06,17.12-19.62,35.2-32.67A5.93,5.93,0,0,0,701.34,240.2Zm-70.46-6c-1.39,8.4-3.88,9-6.25,11.44-8.8,9.21-53.85,15.48-78.32-1.12-10.6-7.19-23.93-6.13-29.34-5.08a2.54,2.54,0,0,1-2.85-3.47l1.29-3.08c10.74-16.21,25.41-35.07,43.58-35.15,20.26-.09,32.33-6.29,32.33-6.29a37.62,37.62,0,0,0,7.7,3.09h0a.5.5,0,0,0,.08.07c4.71,1.57,11.54,2.61,19.91,3.87C631.44,199,633.09,220.82,630.88,234.2Zm14.65,6.31c-3.1,1.13-4.75.92-6.52-1.85-2.24-3.5-3.08-13-1.92-18.47,3.1-14.51,9.82-8.76,10.13-8.65,10.24,8.31,25.43,23,25.87,23.24l.09.41a3.31,3.31,0,0,1-3.8,3.9C665.07,238.4,657.45,236.18,645.53,240.51Z" transform="translate(-483.84 -144.33)"/><ellipse class="a" cx="166.96" cy="196.97" rx="8.85" ry="9.98"/></svg>