<svg enable-background="new 0 0 512 512" height="512" viewBox="0 0 512 512" width="512" xmlns="http://www.w3.org/2000/svg"><g id="_x30_2_Press_Pass"><g><path d="m181.108 314.976c15.311-10.704 25.366-28.419 25.366-48.46 0-32.621-26.566-59.156-59.218-59.156-32.613 0-59.148 26.535-59.148 59.156 0 20.875 10.901 39.219 27.279 49.748-22.718 8.882-41.73 26.276-52.235 49.179-10.223 22.299 6.045 47.74 30.59 47.74h112.577c24.527 0 40.819-25.428 30.59-47.74-11.049-24.087-31.512-42.064-55.801-50.467zm-77.064-48.459c0-23.827 19.384-43.219 43.211-43.219 23.866 0 43.281 19.392 43.281 43.219s-19.415 43.211-43.281 43.211c-23.827 0-43.211-19.384-43.211-43.211zm102.274 130.731h-112.577c-12.863 0-21.536-13.317-16.1-25.158 12.941-28.224 41.352-46.464 72.385-46.464 31.041 0 59.452 18.24 72.392 46.464 5.378 11.714-3.096 25.158-16.1 25.158z"/><path d="m279.458 251.296h22.287c4.404 0 7.968-3.564 7.968-7.968s-3.564-7.968-7.968-7.968h-22.287c-4.404 0-7.968 3.564-7.968 7.968s3.563 7.968 7.968 7.968z"/><path d="m391.824 277.318h-112.366c-4.404 0-7.968 3.564-7.968 7.968s3.564 7.968 7.968 7.968h112.367c4.404 0 7.968-3.564 7.968-7.968s-3.564-7.968-7.969-7.968z"/><path d="m279.458 343.228h22.287c4.404 0 7.968-3.564 7.968-7.968s-3.564-7.968-7.968-7.968h-22.287c-4.404 0-7.968 3.564-7.968 7.968-.001 4.404 3.563 7.968 7.968 7.968z"/><path d="m391.824 369.258h-112.366c-4.404 0-7.968 3.564-7.968 7.968s3.564 7.968 7.968 7.968h112.367c4.404 0 7.968-3.564 7.968-7.968s-3.564-7.968-7.969-7.968z"/><path d="m422.017 45.737c-49.016 0-88.897 39.873-88.897 88.89 0 6.767.828 13.334 2.268 19.672h-288.251c-25.438-.001-46.137 20.698-46.137 46.136v219.691c0 25.438 20.699 46.137 46.137 46.137h365.511c25.438 0 46.137-20.699 46.137-46.137v-204.644c30.749-14.015 52.215-44.947 52.215-80.856 0-49.016-39.92-88.889-88.983-88.889zm20.832 374.389c0 16.653-13.548 30.201-30.2 30.201h-365.512c-16.653 0-30.2-13.548-30.2-30.201v-219.691c0-16.653 13.548-30.201 30.2-30.201h293.481c13.761 31.329 45.046 53.289 81.399 53.289 7.184 0 14.136-.948 20.831-2.562v199.165zm-20.832-212.539c-40.231 0-72.961-32.73-72.961-72.961 0-40.223 32.73-72.953 72.961-72.953 40.278 0 73.046 32.73 73.046 72.953 0 40.231-32.768 72.961-73.046 72.961z"/><path d="m441.751 110.838-30.683 30.683-8.7-8.7c-3.113-3.113-8.155-3.113-11.268 0s-3.113 8.155 0 11.268l14.334 14.334c1.556 1.556 3.595 2.334 5.634 2.334s4.078-.778 5.634-2.334l36.317-36.317c3.113-3.113 3.113-8.155 0-11.268s-8.155-3.113-11.268 0z"/></g></g></svg>